<svg xmlns="http://www.w3.org/2000/svg" viewBox="0 0 24 24" width="24" height="24" fill="black">
  <path d="M16.5 2c-1.7 0-3.4.9-4.3 2.4-.9 1.4-1.1 3.2-.6 4.8 1.8.1 3.6-.9 4.5-2.4.9-1.4 1.1-3.2.4-4.8zm2.3 6.7c-1.1-.1-2.2.3-3.1 1-.6.5-1.1 1.1-1.4 1.7-.8 1.3-2.1 1.9-3.4 1.9-1.3 0-2.6-.6-3.4-1.9-.3-.6-.8-1.2-1.4-1.7-.9-.7-2-.9-3.1-1-1.2 0-2.5.5-3.3 1.6-1.1 1.5-1.6 4-.2 7 1.3 2.8 3.4 5.1 6.1 5.1 1.2 0 2.2-.4 3.3-.4 1 0 2.1.4 3.3.4 2.7 0 4.8-2.3 6.1-5.1 1.4-3 .9-5.5-.2-7-.9-1.1-2.1-1.6-3.3-1.6z"/>
</svg>
