<svg xmlns="http://www.w3.org/2000/svg" viewBox="0 0 48 48" width="24" height="24">
  <path fill="#4285F4" d="M24 9.5c3.1 0 5.8 1.1 8 3.2l6-6C34.1 3.5 29.4 1.5 24 1.5 14.9 1.5 7.2 7.8 4.6 16l7.5 5.8C13.6 14.4 18.3 9.5 24 9.5z"/>
  <path fill="#34A853" d="M46.5 24.5c0-1.3-.1-2.6-.4-3.8H24v7.3h12.7c-.6 3.4-2.5 6.2-5.4 8.2l7.5 5.8C42.6 37.3 46.5 31.5 46.5 24.5z"/>
  <path fill="#FBBC05" d="M12.1 28.8c-1.2-3.4-1.2-7 0-10.3L4.6 12.7C1.6 18.4 1.6 26.5 4.6 32.3l7.5-5.8z"/>
  <path fill="#EA4335" d="M24 47.5c6.4 0 11.7-2.1 15.5-5.6l-7.5-5.8c-2.1 1.4-4.8 2.2-8 2.2-5.7 0-10.4-4.9-11.9-11.5l-7.5 5.8C7.2 40.2 14.9 47.5 24 47.5z"/>
</svg>
